<mxfile host="app.diagrams.net" modified="2024-04-10T07:59:44.452Z" agent="Mozilla/5.0 (Windows NT 10.0; Win64; x64) AppleWebKit/537.36 (KHTML, like Gecko) Chrome/123.0.0.0 Safari/537.36" etag="qP7umHV9uN80z-9FL6Ut" version="24.2.3" type="github">
  <diagram name="Page-1" id="PnlsnvqKdUeu69CWARhU">
    <mxGraphModel dx="1120" dy="1560" grid="1" gridSize="10" guides="1" tooltips="1" connect="1" arrows="1" fold="1" page="1" pageScale="1" pageWidth="850" pageHeight="1100" math="0" shadow="0">
      <root>
        <mxCell id="0" />
        <mxCell id="1" parent="0" />
        <mxCell id="67E0ACsHABWsiDCTZJuG-1" value="" style="sketch=0;outlineConnect=0;fontColor=#232F3E;gradientColor=none;fillColor=#232F3D;strokeColor=none;dashed=0;verticalLabelPosition=bottom;verticalAlign=top;align=center;html=1;fontSize=12;fontStyle=0;aspect=fixed;pointerEvents=1;shape=mxgraph.aws4.servers;" vertex="1" parent="1">
          <mxGeometry x="160" y="-20" width="78" height="78" as="geometry" />
        </mxCell>
        <mxCell id="67E0ACsHABWsiDCTZJuG-2" value="" style="shape=mxgraph.cisco.switches.layer_3_switch;html=1;pointerEvents=1;dashed=0;fillColor=#036897;strokeColor=#ffffff;strokeWidth=2;verticalLabelPosition=bottom;verticalAlign=top;align=center;outlineConnect=0;" vertex="1" parent="1">
          <mxGeometry x="450" y="150" width="64" height="64" as="geometry" />
        </mxCell>
        <mxCell id="67E0ACsHABWsiDCTZJuG-3" value="" style="image;html=1;image=img/lib/clip_art/networking/Router_Icon_128x128.png" vertex="1" parent="1">
          <mxGeometry x="467" y="-12" width="80" height="80" as="geometry" />
        </mxCell>
        <mxCell id="67E0ACsHABWsiDCTZJuG-4" value="" style="fontColor=#0066CC;verticalAlign=top;verticalLabelPosition=bottom;labelPosition=center;align=center;html=1;outlineConnect=0;fillColor=#CCCCCC;strokeColor=#6881B3;gradientColor=none;gradientDirection=north;strokeWidth=2;shape=mxgraph.networks.pc;" vertex="1" parent="1">
          <mxGeometry x="250" y="300" width="100" height="70" as="geometry" />
        </mxCell>
        <mxCell id="67E0ACsHABWsiDCTZJuG-5" value="" style="fontColor=#0066CC;verticalAlign=top;verticalLabelPosition=bottom;labelPosition=center;align=center;html=1;outlineConnect=0;fillColor=#CCCCCC;strokeColor=#6881B3;gradientColor=none;gradientDirection=north;strokeWidth=2;shape=mxgraph.networks.pc;" vertex="1" parent="1">
          <mxGeometry x="390" y="310" width="100" height="70" as="geometry" />
        </mxCell>
        <mxCell id="67E0ACsHABWsiDCTZJuG-6" value="" style="image;points=[];aspect=fixed;html=1;align=center;shadow=0;dashed=0;image=img/lib/allied_telesis/computer_and_terminals/Laptop.svg;" vertex="1" parent="1">
          <mxGeometry x="505" y="325.4" width="42" height="42.599999999999994" as="geometry" />
        </mxCell>
        <mxCell id="67E0ACsHABWsiDCTZJuG-7" value="" style="endArrow=none;html=1;rounded=0;entryX=0.5;entryY=1;entryDx=0;entryDy=0;entryPerimeter=0;" edge="1" parent="1" source="67E0ACsHABWsiDCTZJuG-5" target="67E0ACsHABWsiDCTZJuG-2">
          <mxGeometry width="50" height="50" relative="1" as="geometry">
            <mxPoint x="400" y="170" as="sourcePoint" />
            <mxPoint x="450" y="120" as="targetPoint" />
          </mxGeometry>
        </mxCell>
        <mxCell id="67E0ACsHABWsiDCTZJuG-8" value="" style="endArrow=none;html=1;rounded=0;" edge="1" parent="1" source="67E0ACsHABWsiDCTZJuG-4" target="67E0ACsHABWsiDCTZJuG-2">
          <mxGeometry width="50" height="50" relative="1" as="geometry">
            <mxPoint x="400" y="170" as="sourcePoint" />
            <mxPoint x="450" y="120" as="targetPoint" />
          </mxGeometry>
        </mxCell>
        <mxCell id="67E0ACsHABWsiDCTZJuG-9" value="" style="endArrow=none;html=1;rounded=0;" edge="1" parent="1" source="67E0ACsHABWsiDCTZJuG-2" target="67E0ACsHABWsiDCTZJuG-3">
          <mxGeometry width="50" height="50" relative="1" as="geometry">
            <mxPoint x="400" y="170" as="sourcePoint" />
            <mxPoint x="450" y="120" as="targetPoint" />
          </mxGeometry>
        </mxCell>
        <mxCell id="67E0ACsHABWsiDCTZJuG-10" value="" style="endArrow=none;html=1;rounded=0;" edge="1" parent="1" source="67E0ACsHABWsiDCTZJuG-1" target="67E0ACsHABWsiDCTZJuG-3">
          <mxGeometry width="50" height="50" relative="1" as="geometry">
            <mxPoint x="400" y="170" as="sourcePoint" />
            <mxPoint x="450" y="120" as="targetPoint" />
          </mxGeometry>
        </mxCell>
        <mxCell id="67E0ACsHABWsiDCTZJuG-11" value="" style="endArrow=none;html=1;rounded=0;" edge="1" parent="1" source="67E0ACsHABWsiDCTZJuG-2" target="67E0ACsHABWsiDCTZJuG-6">
          <mxGeometry width="50" height="50" relative="1" as="geometry">
            <mxPoint x="400" y="170" as="sourcePoint" />
            <mxPoint x="450" y="120" as="targetPoint" />
          </mxGeometry>
        </mxCell>
        <mxCell id="67E0ACsHABWsiDCTZJuG-12" value="SERVER" style="text;html=1;align=center;verticalAlign=middle;resizable=0;points=[];autosize=1;strokeColor=none;fillColor=none;" vertex="1" parent="1">
          <mxGeometry x="155" y="58" width="70" height="30" as="geometry" />
        </mxCell>
        <mxCell id="67E0ACsHABWsiDCTZJuG-13" value="ROUTER" style="text;html=1;align=center;verticalAlign=middle;resizable=0;points=[];autosize=1;strokeColor=none;fillColor=none;" vertex="1" parent="1">
          <mxGeometry x="505" y="-42" width="70" height="30" as="geometry" />
        </mxCell>
        <mxCell id="67E0ACsHABWsiDCTZJuG-14" value="SWITCH" style="text;html=1;align=center;verticalAlign=middle;resizable=0;points=[];autosize=1;strokeColor=none;fillColor=none;" vertex="1" parent="1">
          <mxGeometry x="495" y="148" width="70" height="30" as="geometry" />
        </mxCell>
        <mxCell id="67E0ACsHABWsiDCTZJuG-15" value="PC1" style="text;html=1;align=center;verticalAlign=middle;resizable=0;points=[];autosize=1;strokeColor=none;fillColor=none;" vertex="1" parent="1">
          <mxGeometry x="255" y="378" width="50" height="30" as="geometry" />
        </mxCell>
        <mxCell id="67E0ACsHABWsiDCTZJuG-16" value="PC2" style="text;html=1;align=center;verticalAlign=middle;resizable=0;points=[];autosize=1;strokeColor=none;fillColor=none;" vertex="1" parent="1">
          <mxGeometry x="385" y="388" width="50" height="30" as="geometry" />
        </mxCell>
        <mxCell id="67E0ACsHABWsiDCTZJuG-17" value="LAPTOP" style="text;html=1;align=center;verticalAlign=middle;resizable=0;points=[];autosize=1;strokeColor=none;fillColor=none;" vertex="1" parent="1">
          <mxGeometry x="514" y="368" width="70" height="30" as="geometry" />
        </mxCell>
        <mxCell id="67E0ACsHABWsiDCTZJuG-18" value="VLAN 10&lt;div&gt;ADMIN&lt;/div&gt;" style="text;html=1;align=center;verticalAlign=middle;resizable=0;points=[];autosize=1;strokeColor=none;fillColor=none;" vertex="1" parent="1">
          <mxGeometry x="345" y="423" width="70" height="40" as="geometry" />
        </mxCell>
        <mxCell id="67E0ACsHABWsiDCTZJuG-20" value="192.168.20.1" style="text;html=1;align=center;verticalAlign=middle;resizable=0;points=[];autosize=1;strokeColor=none;fillColor=none;" vertex="1" parent="1">
          <mxGeometry x="365" y="78" width="90" height="30" as="geometry" />
        </mxCell>
        <mxCell id="67E0ACsHABWsiDCTZJuG-21" value="fa0/1" style="text;html=1;align=center;verticalAlign=middle;resizable=0;points=[];autosize=1;strokeColor=none;fillColor=none;" vertex="1" parent="1">
          <mxGeometry x="335" y="238" width="50" height="30" as="geometry" />
        </mxCell>
        <mxCell id="67E0ACsHABWsiDCTZJuG-22" value="fa0/2" style="text;html=1;align=center;verticalAlign=middle;resizable=0;points=[];autosize=1;strokeColor=none;fillColor=none;" vertex="1" parent="1">
          <mxGeometry x="455" y="238" width="50" height="30" as="geometry" />
        </mxCell>
        <mxCell id="67E0ACsHABWsiDCTZJuG-23" value="fa0/3" style="text;html=1;align=center;verticalAlign=middle;resizable=0;points=[];autosize=1;strokeColor=none;fillColor=none;" vertex="1" parent="1">
          <mxGeometry x="505" y="218" width="50" height="30" as="geometry" />
        </mxCell>
        <mxCell id="67E0ACsHABWsiDCTZJuG-24" value="gig0/1" style="text;html=1;align=center;verticalAlign=middle;resizable=0;points=[];autosize=1;strokeColor=none;fillColor=none;" vertex="1" parent="1">
          <mxGeometry x="490" y="78" width="60" height="30" as="geometry" />
        </mxCell>
        <mxCell id="67E0ACsHABWsiDCTZJuG-25" value="10.10.2.1" style="text;html=1;align=center;verticalAlign=middle;resizable=0;points=[];autosize=1;strokeColor=none;fillColor=none;" vertex="1" parent="1">
          <mxGeometry x="255" y="-42" width="70" height="30" as="geometry" />
        </mxCell>
        <mxCell id="67E0ACsHABWsiDCTZJuG-28" value="" style="image;points=[];aspect=fixed;html=1;align=center;shadow=0;dashed=0;image=img/lib/allied_telesis/computer_and_terminals/Laptop.svg;" vertex="1" parent="1">
          <mxGeometry x="780" y="330.29" width="22" height="22.31" as="geometry" />
        </mxCell>
        <mxCell id="67E0ACsHABWsiDCTZJuG-29" value="" style="shape=mxgraph.cisco.switches.layer_3_switch;html=1;pointerEvents=1;dashed=0;fillColor=#036897;strokeColor=#ffffff;strokeWidth=2;verticalLabelPosition=bottom;verticalAlign=top;align=center;outlineConnect=0;" vertex="1" parent="1">
          <mxGeometry x="689" y="200" width="64" height="64" as="geometry" />
        </mxCell>
        <mxCell id="67E0ACsHABWsiDCTZJuG-30" value="" style="endArrow=none;html=1;rounded=0;" edge="1" parent="1" target="67E0ACsHABWsiDCTZJuG-2">
          <mxGeometry width="50" height="50" relative="1" as="geometry">
            <mxPoint x="700" y="230" as="sourcePoint" />
            <mxPoint x="750" y="180" as="targetPoint" />
          </mxGeometry>
        </mxCell>
        <mxCell id="67E0ACsHABWsiDCTZJuG-31" value="" style="endArrow=none;html=1;rounded=0;exitX=0.5;exitY=1;exitDx=0;exitDy=0;exitPerimeter=0;entryX=0.451;entryY=-0.013;entryDx=0;entryDy=0;entryPerimeter=0;" edge="1" parent="1" target="67E0ACsHABWsiDCTZJuG-28">
          <mxGeometry width="50" height="50" relative="1" as="geometry">
            <mxPoint x="730" y="248" as="sourcePoint" />
            <mxPoint x="789.9173607075988" y="314.28999999999996" as="targetPoint" />
          </mxGeometry>
        </mxCell>
        <mxCell id="67E0ACsHABWsiDCTZJuG-34" value="LAPTOP" style="text;html=1;align=center;verticalAlign=middle;resizable=0;points=[];autosize=1;strokeColor=none;fillColor=none;" vertex="1" parent="1">
          <mxGeometry x="745" y="358" width="70" height="30" as="geometry" />
        </mxCell>
        <mxCell id="67E0ACsHABWsiDCTZJuG-35" value="" style="fontColor=#0066CC;verticalAlign=top;verticalLabelPosition=bottom;labelPosition=center;align=center;html=1;outlineConnect=0;fillColor=#CCCCCC;strokeColor=#6881B3;gradientColor=none;gradientDirection=north;strokeWidth=2;shape=mxgraph.networks.pc;" vertex="1" parent="1">
          <mxGeometry x="702" y="408" width="100" height="70" as="geometry" />
        </mxCell>
        <mxCell id="67E0ACsHABWsiDCTZJuG-36" value="" style="fontColor=#0066CC;verticalAlign=top;verticalLabelPosition=bottom;labelPosition=center;align=center;html=1;outlineConnect=0;fillColor=#CCCCCC;strokeColor=#6881B3;gradientColor=none;gradientDirection=north;strokeWidth=2;shape=mxgraph.networks.pc;" vertex="1" parent="1">
          <mxGeometry x="589" y="358" width="100" height="70" as="geometry" />
        </mxCell>
        <mxCell id="67E0ACsHABWsiDCTZJuG-37" value="" style="endArrow=none;html=1;rounded=0;" edge="1" parent="1" source="67E0ACsHABWsiDCTZJuG-35" target="67E0ACsHABWsiDCTZJuG-29">
          <mxGeometry width="50" height="50" relative="1" as="geometry">
            <mxPoint x="520" y="300" as="sourcePoint" />
            <mxPoint x="726" y="264" as="targetPoint" />
          </mxGeometry>
        </mxCell>
        <mxCell id="67E0ACsHABWsiDCTZJuG-38" value="" style="endArrow=none;html=1;rounded=0;" edge="1" parent="1" source="67E0ACsHABWsiDCTZJuG-36" target="67E0ACsHABWsiDCTZJuG-29">
          <mxGeometry width="50" height="50" relative="1" as="geometry">
            <mxPoint x="520" y="300" as="sourcePoint" />
            <mxPoint x="570" y="250" as="targetPoint" />
          </mxGeometry>
        </mxCell>
        <mxCell id="67E0ACsHABWsiDCTZJuG-39" value="PC3" style="text;html=1;align=center;verticalAlign=middle;resizable=0;points=[];autosize=1;strokeColor=none;fillColor=none;" vertex="1" parent="1">
          <mxGeometry x="585" y="428" width="50" height="30" as="geometry" />
        </mxCell>
        <mxCell id="67E0ACsHABWsiDCTZJuG-40" value="PC4" style="text;html=1;align=center;verticalAlign=middle;resizable=0;points=[];autosize=1;strokeColor=none;fillColor=none;" vertex="1" parent="1">
          <mxGeometry x="695" y="468" width="50" height="30" as="geometry" />
        </mxCell>
        <mxCell id="67E0ACsHABWsiDCTZJuG-41" value="VLAN 20" style="text;html=1;align=center;verticalAlign=middle;resizable=0;points=[];autosize=1;strokeColor=none;fillColor=none;" vertex="1" parent="1">
          <mxGeometry x="635" y="498" width="70" height="30" as="geometry" />
        </mxCell>
      </root>
    </mxGraphModel>
  </diagram>
</mxfile>
